<?xml version="1.0" standalone="no"?>
<!DOCTYPE svg PUBLIC "-//W3C//DTD SVG 20010904//EN"
 "http://www.w3.org/TR/2001/REC-SVG-20010904/DTD/svg10.dtd">
<svg version="1.0" xmlns="http://www.w3.org/2000/svg"
 width="288.000000pt" height="213.000000pt" viewBox="0 0 288.000000 213.000000"
 preserveAspectRatio="xMidYMid meet">

<g transform="translate(0.000000,213.000000) scale(0.100000,-0.100000)"
fill="#000000" stroke="none">
<path d="M1412 1778 c-93 -168 -170 -367 -214 -550 -18 -75 -22 -128 -24 -273
-2 -99 -3 -181 -3 -183 -1 -1 -27 16 -59 38 -62 42 -200 112 -292 148 -141 56
-362 96 -587 108 -122 6 -133 5 -133 -11 0 -18 68 -138 82 -143 4 -2 8 -8 8
-14 0 -6 38 -60 84 -122 75 -98 197 -227 278 -293 168 -137 405 -252 608 -294
102 -22 237 7 284 60 24 27 27 27 64 -9 44 -42 128 -64 217 -57 63 6 221 45
263 66 10 5 55 26 101 47 85 39 236 134 301 189 46 39 240 238 240 246 0 3 8
15 18 26 46 54 202 289 202 306 0 12 -237 0 -376 -19 -149 -20 -330 -69 -434
-116 -61 -28 -240 -132 -240 -140 0 -4 -8 -8 -18 -8 -16 0 -17 11 -14 138 6
207 -29 377 -125 617 -47 116 -159 335 -172 335 -4 0 -31 -42 -59 -92z m107
-140 c49 -105 117 -300 142 -403 34 -145 21 -287 -29 -314 -30 -16 -73 -13
-94 6 -19 17 -25 78 -8 88 23 14 50 86 50 133 0 83 -60 149 -124 137 -91 -17
-127 -146 -66 -236 33 -49 38 -93 13 -121 -18 -20 -64 -24 -95 -7 -50 27 -63
170 -29 314 42 171 165 485 191 485 6 0 28 -37 49 -82z"/>
<path d="M673 1483 c7 -168 42 -388 66 -417 6 -7 53 -28 104 -46 50 -18 128
-53 173 -77 44 -23 83 -43 86 -43 3 0 9 51 12 113 4 61 14 145 22 186 9 41 13
84 10 97 -12 45 -423 354 -472 354 -4 0 -4 -75 -1 -167z"/>
<path d="M2150 1582 c-97 -61 -151 -100 -205 -143 -115 -95 -147 -123 -152
-135 -3 -8 2 -59 10 -112 9 -53 19 -141 23 -194 7 -95 14 -112 39 -89 30 26
156 83 316 143 29 10 34 27 65 208 18 106 31 375 18 383 -5 3 -57 -25 -114
-61z"/>
</g>
</svg>
